<svg xmlns="http://www.w3.org/2000/svg" xlink="http://www.w3.org/1999/xlink">
	<symbol id="ri-close" viewBox="0 0 30 30">
		<path d="M12 22C6.47715 22 2 17.5228 2 12C2 6.47715 6.47715 2 12 2C17.5228 2 22 6.47715 22 12C22 17.5228 17.5228 22 12 22ZM12 20C16.4183 20 20 16.4183 20 12C20 7.58172 16.4183 4 12 4C7.58172 4 4 7.58172 4 12C4 16.4183 7.58172 20 12 20ZM12 10.5858L14.8284 7.75736L16.2426 9.17157L13.4142 12L16.2426 14.8284L14.8284 16.2426L12 13.4142L9.17157 16.2426L7.75736 14.8284L10.5858 12L7.75736 9.17157L9.17157 7.75736L12 10.5858Z"/>
	</symbol>
	<symbol id="circle" fill="none" stroke="currentColor" stroke-width="2" stroke-linecap="round" stroke-linejoin="round">
		<circle cx="18" cy="19" r="12"></circle>
	</symbol>
	<symbol id="github" viewBox="0 0 30 30">
		<path d="M12.001 2C6.47598 2 2.00098 6.475 2.00098 12C2.00098 16.425 4.86348 20.1625 8.83848 21.4875C9.33848 21.575 9.52598 21.275 9.52598 21.0125C9.52598 20.775 9.51348 19.9875 9.51348 19.15C7.00098 19.6125 6.35098 18.5375 6.15098 17.975C6.03848 17.6875 5.55098 16.8 5.12598 16.5625C4.77598 16.375 4.27598 15.9125 5.11348 15.9C5.90098 15.8875 6.46348 16.625 6.65098 16.925C7.55098 18.4375 8.98848 18.0125 9.56348 17.75C9.65098 17.1 9.91348 16.6625 10.201 16.4125C7.97598 16.1625 5.65098 15.3 5.65098 11.475C5.65098 10.3875 6.03848 9.4875 6.67598 8.7875C6.57598 8.5375 6.22598 7.5125 6.77598 6.1375C6.77598 6.1375 7.61348 5.875 9.52598 7.1625C10.326 6.9375 11.176 6.825 12.026 6.825C12.876 6.825 13.726 6.9375 14.526 7.1625C16.4385 5.8625 17.276 6.1375 17.276 6.1375C17.826 7.5125 17.476 8.5375 17.376 8.7875C18.0135 9.4875 18.401 10.375 18.401 11.475C18.401 15.3125 16.0635 16.1625 13.8385 16.4125C14.201 16.725 14.5135 17.325 14.5135 18.2625C14.5135 19.6 14.501 20.675 14.501 21.0125C14.501 21.275 14.6885 21.5875 15.1885 21.4875C19.259 20.1133 21.9999 16.2963 22.001 12C22.001 6.475 17.526 2 12.001 2Z"/>
	</symbol>
	<symbol id="telegram" viewBox="0 0 30 30">
		<path d="M12.001 22C6.47813 22 2.00098 17.5228 2.00098 12C2.00098 6.47715 6.47813 2 12.001 2C17.5238 2 22.001 6.47715 22.001 12C22.001 17.5228 17.5238 22 12.001 22ZM8.89113 13.1708L8.90378 13.1628C9.48351 15.0767 9.77337 16.0337 9.77337 16.0337C9.88564 16.3442 10.04 16.3996 10.2273 16.3743C10.4145 16.3489 10.5139 16.2476 10.6361 16.1297C10.6361 16.1297 11.0324 15.7472 11.825 14.9823L14.3759 16.8698C14.8407 17.1266 15.1763 16.9941 15.2917 16.4377L16.9495 8.61641C17.1325 7.88842 16.8115 7.59644 16.247 7.82754L6.51397 11.5871C5.84996 11.854 5.85317 12.2255 6.39308 12.3911L8.89113 13.1708Z"/>
	</symbol>
	<symbol id="mail" viewBox="0 0 30 30">
		<path d="M20 12C20 7.58172 16.4183 4 12 4C7.58172 4 4 7.58172 4 12C4 16.4183 7.58172 20 12 20C13.6418 20 15.1681 19.5054 16.4381 18.6571L17.5476 20.3214C15.9602 21.3818 14.0523 22 12 22C6.47715 22 2 17.5228 2 12C2 6.47715 6.47715 2 12 2C17.5228 2 22 6.47715 22 12V13.5C22 15.433 20.433 17 18.5 17C17.2958 17 16.2336 16.3918 15.6038 15.4659C14.6942 16.4115 13.4158 17 12 17C9.23858 17 7 14.7614 7 12C7 9.23858 9.23858 7 12 7C13.1258 7 14.1647 7.37209 15.0005 8H17V13.5C17 14.3284 17.6716 15 18.5 15C19.3284 15 20 14.3284 20 13.5V12ZM12 9C10.3431 9 9 10.3431 9 12C9 13.6569 10.3431 15 12 15C13.6569 15 15 13.6569 15 12C15 10.3431 13.6569 9 12 9Z"/>
	</symbol>
	<symbol id="factory" viewBox="0 0 30 30">
		<path d="m 24,12.391518 v 9.732001 c 0,0.325891 -0.264275,0.590169 -0.590165,0.590169 H 0.5901649 C 0.26427584,22.713688 0,22.44941 0,22.123519 V 15.23743 C 0,15.013638 0.12653135,14.809203 0.32671529,14.709347 L 6.0316033,11.863434 c 0.1829512,-0.09124 0.4001319,-0.08132 0.5738764,0.0262 0.1738627,0.107529 0.2797388,0.297446 0.2797388,0.50188 v 1.891963 L 10.37864,12.540829 V 6.777004 c 0,-0.3258909 0.264276,-0.5901688 0.590165,-0.5901688 h 1.071031 c 0.325889,0 0.590165,0.2642779 0.590165,0.5901688 v 7.486645 l 3.897567,-1.944252 0.24126,-10.4564924 C 16.776264,1.542327 17.038179,1.286312 17.358874,1.286312 h 2.572766 c 0.320577,0 0.58261,0.256015 0.590046,0.5765946 l 0.25802,11.1812194 2.36668,-1.180573 c 0.182951,-0.09124 0.400013,-0.08133 0.573876,0.0262 C 23.894125,11.997284 24,12.187082 24,12.391516 Z M 4.1403609,17.937452 H 2.5439648 v 2.243349 h 1.5963961 z m 4.3229577,0 H 6.8669228 v 2.243349 h 1.5963958 z m 4.3230764,0 h -1.596397 v 2.243349 h 1.596397 z m 4.323075,0 h -1.596396 v 2.243349 h 1.596396 z"/>
	</symbol>
	<symbol id="dark_mode" viewBox="0 0 30 30">
		<path d="M12,3c-4.97,0-9,4.03-9,9s4.03,9,9,9s9-4.03,9-9c0-0.46-0.04-0.92-0.1-1.36c-0.98,1.37-2.58,2.26-4.4,2.26 c-2.98,0-5.4-2.42-5.4-5.4c0-1.81,0.89-3.42,2.26-4.4C12.92,3.04,12.46,3,12,3L12,3z"/>
	</symbol>
	<symbol id="light_mode" viewBox="0 0 30 30">
		<path d="M12,7c-2.76,0-5,2.24-5,5s2.24,5,5,5s5-2.24,5-5S14.76,7,12,7L12,7z M2,13l2,0c0.55,0,1-0.45,1-1s-0.45-1-1-1l-2,0 c-0.55,0-1,0.45-1,1S1.45,13,2,13z M20,13l2,0c0.55,0,1-0.45,1-1s-0.45-1-1-1l-2,0c-0.55,0-1,0.45-1,1S19.45,13,20,13z M11,2v2 c0,0.55,0.45,1,1,1s1-0.45,1-1V2c0-0.55-0.45-1-1-1S11,1.45,11,2z M11,20v2c0,0.55,0.45,1,1,1s1-0.45,1-1v-2c0-0.55-0.45-1-1-1 C11.45,19,11,19.45,11,20z M5.99,4.58c-0.39-0.39-1.03-0.39-1.41,0c-0.39,0.39-0.39,1.03,0,1.41l1.06,1.06 c0.39,0.39,1.03,0.39,1.41,0s0.39-1.03,0-1.41L5.99,4.58z M18.36,16.95c-0.39-0.39-1.03-0.39-1.41,0c-0.39,0.39-0.39,1.03,0,1.41 l1.06,1.06c0.39,0.39,1.03,0.39,1.41,0c0.39-0.39,0.39-1.03,0-1.41L18.36,16.95z M19.42,5.99c0.39-0.39,0.39-1.03,0-1.41 c-0.39-0.39-1.03-0.39-1.41,0l-1.06,1.06c-0.39,0.39-0.39,1.03,0,1.41s1.03,0.39,1.41,0L19.42,5.99z M7.05,18.36 c0.39-0.39,0.39-1.03,0-1.41c-0.39-0.39-1.03-0.39-1.41,0l-1.06,1.06c-0.39,0.39-0.39,1.03,0,1.41s1.03,0.39,1.41,0L7.05,18.36z"/>
	</symbol>
	<symbol id="arrow_back" viewBox="0 0 30 30">
		<path d="M20 11H7.83l5.59-5.59L12 4l-8 8 8 8 1.41-1.41L7.83 13H20v-2z"/>
	</symbol>
	<symbol id="arrow_forward" viewBox="0 0 30 30">
		<path d="M12 4l-1.41 1.41L16.17 11H4v2h12.17l-5.58 5.59L12 20l8-8z"/>
	</symbol>
	<symbol id="ri-alarm-warning-fill" viewBox="0 0 30 30">
		<path d="M4 20v-6a8 8 0 1 1 16 0v6h1v2H3v-2h1zm2-6h2a4 4 0 0 1 4-4V8a6 6 0 0 0-6 6zm5-12h2v3h-2V2zm8.778 2.808l1.414 1.414-2.12 2.121-1.415-1.414 2.121-2.121zM2.808 6.222l1.414-1.414 2.121 2.12L4.93 8.344 2.808 6.222z"/>
	</symbol>
	<symbol id="ri-dashboard-2-fill" viewBox="0 0 30 30">
		<path d="M12 2c5.523 0 10 4.477 10 10s-4.477 10-10 10S2 17.523 2 12 6.477 2 12 2zm0 3c-3.866 0-7 3.134-7 7 0 1.852.72 3.537 1.894 4.789l.156.16 1.414-1.413C7.56 14.63 7 13.38 7 12c0-2.761 2.239-5 5-5 .448 0 .882.059 1.295.17l1.563-1.562C13.985 5.218 13.018 5 12 5zm6.392 4.143l-1.561 1.562c.11.413.169.847.169 1.295 0 1.38-.56 2.63-1.464 3.536l1.414 1.414C18.216 15.683 19 13.933 19 12c0-1.018-.217-1.985-.608-2.857zm-2.15-2.8l-3.725 3.724C12.352 10.023 12.179 10 12 10c-1.105 0-2 .895-2 2s.895 2 2 2 2-.895 2-2c0-.179-.023-.352-.067-.517l3.724-3.726-1.414-1.414z"/>
	</symbol>
	<symbol id="ri-group-fill" viewBox="0 0 30 30">
		<path d="M2 22a8 8 0 1 1 16 0H2zm8-9c-3.315 0-6-2.685-6-6s2.685-6 6-6 6 2.685 6 6-2.685 6-6 6zm7.363 2.233A7.505 7.505 0 0 1 22.983 22H20c0-2.61-1-4.986-2.637-6.767zm-2.023-2.276A7.98 7.98 0 0 0 18 7a7.964 7.964 0 0 0-1.015-3.903A5 5 0 0 1 21 8a4.999 4.999 0 0 1-5.66 4.957z"/>
	</symbol>
	<symbol id="ri-tools-fill" viewBox="0 0 30 30">
		<path d="M5.33 3.271a3.5 3.5 0 0 1 4.472 4.474L20.647 18.59l-2.122 2.121L7.68 9.867a3.5 3.5 0 0 1-4.472-4.474L5.444 7.63a1.5 1.5 0 1 0 2.121-2.121L5.329 3.27zm10.367 1.884l3.182-1.768 1.414 1.414-1.768 3.182-1.768.354-2.12 2.121-1.415-1.414 2.121-2.121.354-1.768zm-7.071 7.778l2.121 2.122-4.95 4.95A1.5 1.5 0 0 1 3.58 17.99l.097-.107 4.95-4.95z"/>
	</symbol>
	<symbol id="ri-flashlight-fill" viewBox="0 0 30 30">
		<path d="M13 10h7l-9 13v-9H4l9-13z"/>
	</symbol>
	<symbol id="ri-fire-fill" viewBox="0 0 30 30">
		<path d="M12 23a7.5 7.5 0 0 1-5.138-12.963C8.204 8.774 11.5 6.5 11 1.5c6 4 9 8 3 14 1 0 2.5 0 5-2.47.27.773.5 1.604.5 2.47A7.5 7.5 0 0 1 12 23z"/>
	</symbol>
	<symbol id="ri-edit-2-fill" viewBox="0 0 30 30">
		<path d="M9.243 19H21v2H3v-4.243l9.9-9.9 4.242 4.244L9.242 19zm5.07-13.556l2.122-2.122a1 1 0 0 1 1.414 0l2.829 2.829a1 1 0 0 1 0 1.414l-2.122 2.121-4.242-4.242z"/>
	</symbol>
	<symbol id="ri-eye-off-fill" viewBox="0 0 30 30">
		<path d="M4.52 5.934L1.393 2.808l1.415-1.415 19.799 19.8-1.415 1.414-3.31-3.31A10.949 10.949 0 0 1 12 21c-5.392 0-9.878-3.88-10.819-9a10.982 10.982 0 0 1 3.34-6.066zm10.237 10.238l-1.464-1.464a3 3 0 0 1-4.001-4.001L7.828 9.243a5 5 0 0 0 6.929 6.929zM7.974 3.76C9.221 3.27 10.58 3 12 3c5.392 0 9.878 3.88 10.819 9a10.947 10.947 0 0 1-2.012 4.592l-3.86-3.86a5 5 0 0 0-5.68-5.68L7.974 3.761z"/>
	</symbol>
	<symbol id="ri-eye-fill" viewBox="0 0 30 30">
		<path d="M1.181 12C2.121 6.88 6.608 3 12 3c5.392 0 9.878 3.88 10.819 9-.94 5.12-5.427 9-10.819 9-5.392 0-9.878-3.88-10.819-9zM12 17a5 5 0 1 0 0-10 5 5 0 0 0 0 10zm0-2a3 3 0 1 1 0-6 3 3 0 0 1 0 6z"/>
	</symbol>
	<symbol id="ri-first-aid-kit-fill" viewBox="0 0 30 30">
		<path d="M16 1c.552 0 1 .448 1 1v3h4c.552 0 1 .448 1 1v14c0 .552-.448 1-1 1H3c-.552 0-1-.448-1-1V6c0-.552.448-1 1-1h4V2c0-.552.448-1 1-1h8zm-3 8h-2v3H8v2h2.999L11 17h2l-.001-3H16v-2h-3V9zm2-6H9v2h6V3z"/>
	</symbol>
	<symbol id="ri-fullscreen-fill" viewBox="0 0 30 30">
		<path d="M16 3h6v6h-2V5h-4V3zM2 3h6v2H4v4H2V3zm18 16v-4h2v6h-6v-2h4zM4 19h4v2H2v-6h2v4z"/>
	</symbol>
	<symbol id="ri-fullscreen-exit-fill" viewBox="0 0 30 30">
		<path d="M18 7h4v2h-6V3h2v4zM8 9H2V7h4V3h2v6zm10 8v4h-2v-6h6v2h-4zM8 15v6H6v-4H2v-2h6z"/>
	</symbol>
</svg>
